<?xml version="1.0" encoding="UTF-8" standalone="no"?>
<svg
   viewBox="0 0 512 512"
   version="1.1"
   id="svg4"
   sodipodi:docname="mail.svg"
   inkscape:version="1.2.2 (732a01da63, 2022-12-09)"
   xmlns:inkscape="http://www.inkscape.org/namespaces/inkscape"
   xmlns:sodipodi="http://sodipodi.sourceforge.net/DTD/sodipodi-0.dtd"
   xmlns="http://www.w3.org/2000/svg"
   xmlns:svg="http://www.w3.org/2000/svg">
  <defs
     id="defs8" />
  <sodipodi:namedview
     id="namedview6"
     pagecolor="#ffffff"
     bordercolor="#000000"
     borderopacity="0.25"
     inkscape:showpageshadow="2"
     inkscape:pageopacity="0.0"
     inkscape:pagecheckerboard="0"
     inkscape:deskcolor="#d1d1d1"
     showgrid="false"
     inkscape:zoom="1.5703125"
     inkscape:cx="149.01493"
     inkscape:cy="256"
     inkscape:window-width="1920"
     inkscape:window-height="991"
     inkscape:window-x="-9"
     inkscape:window-y="-9"
     inkscape:window-maximized="1"
     inkscape:current-layer="svg4" />
  <!--! Font Awesome Pro 6.2.1 by @fontawesome - https://fontawesome.com License - https://fontawesome.com/license (Commercial License) Copyright 2022 Fonticons, Inc. -->
  <path
     d="M48 64C21.5 64 0 85.5 0 112c0 15.1 7.1 29.3 19.2 38.4L236.8 313.6c11.4 8.5 27 8.5 38.4 0L492.8 150.4c12.1-9.1 19.2-23.3 19.2-38.4c0-26.5-21.5-48-48-48H48zM0 176V384c0 35.3 28.7 64 64 64H448c35.3 0 64-28.7 64-64V176L294.4 339.2c-22.8 17.1-54 17.1-76.8 0L0 176z"
     id="path2" />
  <path
     style="fill:#aa0000;stroke-width:0.636816"
     d="m 247.62553,318.43316 c -1.62884,-0.44888 -4.49451,-1.65187 -6.36816,-2.67332 C 239.38373,314.7384 187.98806,276.49761 127.04478,230.7803 47.481365,171.09489 15.251254,146.56366 12.736318,143.77693 8.1016371,138.64138 5.3659391,133.98746 2.9984883,127.21112 1.3456684,122.48027 1.0060357,120.44049 0.76504734,113.79746 0.41403765,104.12162 1.4235393,99.289459 5.5807483,90.746269 8.106461,85.555853 9.3890999,83.83204 14.61057,78.61057 19.839018,73.382122 21.548917,72.110758 26.746269,69.587295 30.073632,67.971764 34.80199,66.125366 37.253731,65.484187 41.531372,64.3655 50.367697,64.318408 256,64.318408 c 205.99334,0 214.46112,0.04533 218.74627,1.171087 2.45174,0.644097 7.17534,2.474069 10.49689,4.066604 5.24529,2.514884 6.8406,3.700349 12.1357,9.017968 5.21739,5.239585 6.52103,6.994832 9.04039,12.172202 4.16292,8.554918 5.16856,13.376641 4.80765,23.051191 -0.23618,6.33111 -0.62478,8.81193 -2.02522,12.92891 -2.16369,6.36076 -5.74582,12.4835 -10.09134,17.24858 -3.65561,4.00856 -222.26129,168.45581 -228.33967,171.76971 -1.85823,1.01309 -4.86719,2.2383 -6.68657,2.7227 -4.06345,1.08184 -12.47218,1.06437 -16.45857,-0.0342 z"
     id="path237" />
  <path
     style="fill:#a21caf;stroke-width:0.636816;fill-opacity:1"
     d="M 58.516164,447.33383 C 34.44146,445.18891 13.08145,428.98734 4.6164113,406.45088 0.13298525,394.51465 0.43124174,402.12855 0.18217992,293.25373 0.05839016,239.1403 0.03840019,190.76245 0.1377578,185.7474 L 0.31840796,176.62912 111.12438,259.74918 c 83.14284,62.36883 112.07784,83.74351 115.9005,85.6173 10.00782,4.90562 17.82798,6.71903 28.97512,6.71903 11.22896,0 18.95031,-1.80652 29.21591,-6.8355 4.13964,-2.02796 30.11341,-21.19601 115.9005,-85.53193 l 110.56518,-82.91824 0.18532,101.37122 c 0.18642,101.97261 -0.004,113.06744 -2.07332,120.95196 -6.05675,23.07484 -23.63447,40.65066 -46.67057,46.66553 -2.01318,0.52566 -6.81257,1.23582 -10.66531,1.57815 -8.35155,0.74206 -385.597037,0.71058 -393.941546,-0.0329 z"
     id="path308" />
  <path
     style="fill:#a21caf;fill-opacity:1;stroke-width:0.636816"
     d="m 245.42405,317.26004 c -1.96403,-0.82601 -4.54314,-2.1849 -5.73134,-3.01976 C 230.22882,307.59071 92.141195,204.30549 54.129353,175.4447 12.359311,143.73047 10.767592,142.35374 6.549169,134.29128 2.7882171,127.10315 1.5439538,122.48488 1.16536,114.30846 0.72351389,104.76599 1.8188205,99.483663 5.989291,91.044114 8.7944763,85.367418 9.8492822,83.973277 15.453667,78.535022 21.978325,72.203773 26.82663,69.278874 35.9801,66.151777 c 3.40035,-1.16166 9.825698,-1.196553 220.33831,-1.196553 h 216.83582 l 4.77612,1.8204 c 9.24444,3.523487 12.8319,5.831576 19.30579,12.4209 5.19241,5.284999 6.53884,7.112582 9.00661,12.225129 3.94407,8.171029 5.02677,13.592517 4.58527,22.960047 -0.37164,7.88531 -1.51966,12.37885 -4.84608,18.96846 -3.12246,6.18557 -6.61591,10.10864 -14.4293,16.20384 -23.98101,18.70751 -182.69789,138.17572 -209.44319,157.65055 -14.48671,10.54862 -15.78416,11.12764 -25.47263,11.36785 -6.8455,0.16972 -8.0139,0.033 -11.21277,-1.31236 z"
     id="path3300" />
</svg>
